<?xml version="1.0" encoding="utf-8"?>
<svg width="256" height="512" xmlns="http://www.w3.org/2000/svg" version="1.1" xmlns:bx="https://boxy-svg.com">

  <g class="layer" display="inline">
    <title>Layer 1</title>
    <path d="m121.76,142.86l0,0l-0.01,0c-29.25,-0.01 -52.96,-23.72 -52.96,-52.96l0,-35.31c29.26,0 52.97,23.71 52.97,52.96l0,35.31z" fill="#F0C419" id="svg_3"/>
    <path d="m88.44,224.34l0,0c-28.4,7.02 -57.11,-10.31 -64.13,-38.71l-8.49,-34.27c28.4,-7.02 57.12,10.3 64.15,38.7l8.47,34.28z" fill="#F0C419" id="svg_4"/>
    <path d="m99.89,305.56l0,0c-24.39,16.15 -57.25,9.46 -73.4,-14.93l-19.49,-29.45l0,0c24.39,-16.14 57.26,-9.46 73.4,14.94l19.49,29.44z" fill="#F0C419" id="svg_5"/>
    <path d="m146.74,383.07l0,0c-14.63,25.34 -47.01,34.01 -72.35,19.39l-30.58,-17.66l0,0c14.63,-25.33 47.02,-34.01 72.35,-19.38l30.58,17.65z" fill="#F0C419" id="svg_6"/>
    <path d="m152.99,390.07l0,0c-12.09,-26.63 -0.3,-58.03 26.33,-70.13l32.15,-14.6l0,0c12.1,26.64 0.31,58.04 -26.33,70.13l-32.15,14.6z" fill="#F0C419" id="svg_7"/>
    <path d="m104.1,181.35c14.65,-25.32 42,-41.63 69.7,-32.19l33.41,11.4l0,0c-9.44,27.68 -39.54,42.47 -67.22,33.03l-35.89,-12.24z" fill="#F0C419" id="svg_8"/>
    <path d="m101.26,299.73l0,0c28.31,7.36 57.23,-9.63 64.59,-37.94l8.88,-34.18c-28.31,-7.35 -57.23,9.63 -64.59,37.95l-8.88,34.17z" fill="#F0C419" id="svg_9"/>
    <path d="M 263 455.41 C 231.72 455.41 203.2 445.91 178.24 427.17 C 101.55 361.26 84.36 293.15 83.36 247.55 C 82.16 193.02 103.6 140.96 142.19 104.7 C 145.74 101.37 151.34 101.54 154.68 105.09 C 158.01 108.65 157.84 114.24 154.29 117.57 C 119.34 150.4 99.92 197.64 101.01 247.16 C 101.93 289.16 118.01 352.11 189.31 413.41 C 210.98 429.67 235.24 437.76 263 437.76 C 290.76 437.76 294.29 455.41 263 455.41" fill="#B19046" />
  </g>
</svg>