<svg xmlns="http://www.w3.org/2000/svg" style="display: none;"  aria-hidden="true">
<symbol id="search" viewBox="0 0 24 24"><path d="m21 21-4.34-4.34"/><circle cx="11" cy="11" r="8"/></symbol>
<symbol id="cross" viewBox="0 0 24 24"><path d="M18 6 6 18"/><path d="m6 6 12 12"/></symbol>
<symbol id="question" viewBox="0 0 24 24"><circle cx="12" cy="12" r="10"/><path d="M9.09 9a3 3 0 0 1 5.83 1c0 2-3 3-3 3"/><path d="M12 17h.01"/></symbol>
<symbol id="arrow_up" viewBox="0 0 24 24"><path d="M5 3h14"/><path d="m18 13-6-6-6 6"/><path d="M12 7v14"/></symbol>
<symbol id="chevron_right" viewBox="0 0 24 24"><path d="m9 18 6-6-6-6"/></symbol>
<symbol id="pencil" viewBox="0 0 24 24"><path d="M21.174 6.812a1 1 0 0 0-3.986-3.987L3.842 16.174a2 2 0 0 0-.5.83l-1.321 4.352a.5.5 0 0 0 .623.622l4.353-1.32a2 2 0 0 0 .83-.497z"/><path d="m15 5 4 4"/> </symbol>
<symbol id="settings" viewBox="0 0 24 24"><path d="M9.671 4.136a2.34 2.34 0 0 1 4.659 0 2.34 2.34 0 0 0 3.319 1.915 2.34 2.34 0 0 1 2.33 4.033 2.34 2.34 0 0 0 0 3.831 2.34 2.34 0 0 1-2.33 4.033 2.34 2.34 0 0 0-3.319 1.915 2.34 2.34 0 0 1-4.659 0 2.34 2.34 0 0 0-3.32-1.915 2.34 2.34 0 0 1-2.33-4.033 2.34 2.34 0 0 0 0-3.831A2.34 2.34 0 0 1 6.35 6.051a2.34 2.34 0 0 0 3.319-1.915" /> <circle cx="12" cy = "12" r = "3" /></symbol>
<symbol id="bookmark" viewBox="0 0 32 32"><path d="m19 31-7-4-7 4V0a2 2 0 0 1 2-2h10a2 2 0 0 1 2 2v31z"/></symbol>
<symbol id="award" viewBox="0 0 24 24"><path d="m15.477 12.89 1.515 8.526a.5.5 0 0 1-.81.47l-3.58-2.687a1 1 0 0 0-1.197 0l-3.586 2.686a.5.5 0 0 1-.81-.469l1.514-8.526"/><circle cx="12" cy="8" r="6"/></symbol>
<symbol id="alien" viewBox="0 0 32 32"><path d="M28.8,10.2C27.9,4.5,23,1,16,1S4.1,4.5,3.2,10.2C2.5,15,3.6,20,6.4,23.9c1.4,2,3.1,3.6,5.1,4.8c1.4,0.9,3,1.3,4.5,1.3 s3.1-0.4,4.5-1.3c2-1.2,3.7-2.9,5.1-4.8C28.4,20,29.5,15,28.8,10.2z M13.8,21.6c-0.5,0.5-1.1,0.7-1.7,0.7c-1.2,0-2.5-0.6-3.7-1.8 c-0.8-0.8-1.4-1.8-1.7-2.7c-0.3-1.1-0.1-2.1,0.5-2.8c1.2-1.2,3.6-0.7,5.4,1.2C14.5,18,15,20.4,13.8,21.6z M25.3,17.8 c-0.3,0.9-0.9,1.9-1.7,2.7c-1.2,1.2-2.6,1.8-3.7,1.8c-0.7,0-1.3-0.2-1.7-0.7c-0.6-0.6-0.8-1.6-0.5-2.8c0.3-0.9,0.9-1.9,1.7-2.7 c1.9-1.9,4.2-2.4,5.4-1.2C25.5,15.6,25.6,16.7,25.3,17.8z" /></symbol>
<symbol id="star" viewBox="0 0 24 24"><path d="M11.525 2.295a.53.53 0 0 1 .95 0l2.31 4.679a2.123 2.123 0 0 0 1.595 1.16l5.166.756a.53.53 0 0 1 .294.904l-3.736 3.638a2.123 2.123 0 0 0-.611 1.878l.882 5.14a.53.53 0 0 1-.771.56l-4.618-2.428a2.122 2.122 0 0 0-1.973 0L6.396 21.01a.53.53 0 0 1-.77-.56l.881-5.139a2.122 2.122 0 0 0-.611-1.879L2.16 9.795a.53.53 0 0 1 .294-.906l5.165-.755a2.122 2.122 0 0 0 1.597-1.16z"/></symbol>
<symbol id="thumbs_up" viewBox="0 0 24 24"><path d="M15 5.88 14 10h5.83a2 2 0 0 1 1.92 2.56l-2.33 8A2 2 0 0 1 17.5 22H4a2 2 0 0 1-2-2v-8a2 2 0 0 1 2-2h2.76a2 2 0 0 0 1.79-1.11L12 2a3.13 3.13 0 0 1 3 3.88Z"/><path d="M7 10v12"/></symbol>
<symbol id="trophy" viewBox="0 0 24 24"><path d="M10 14.66v1.626a2 2 0 0 1-.976 1.696A5 5 0 0 0 7 21.978"/><path d="M14 14.66v1.626a2 2 0 0 0 .976 1.696A5 5 0 0 1 17 21.978"/><path d="M18 9h1.5a1 1 0 0 0 0-5H18"/><path d="M4 22h16"/><path d="M6 9a6 6 0 0 0 12 0V3a1 1 0 0 0-1-1H7a1 1 0 0 0-1 1z"/><path d="M6 9H4.5a1 1 0 0 1 0-5H6"/></symbol>
<symbol id="vote" viewBox="0 0 24 24"><path d="m9 12 2 2 4-4"/><path d="M5 7c0-1.1.9-2 2-2h10a2 2 0 0 1 2 2v12H5V7Z"/><path d="M22 19H2"/></symbol>
<symbol id="bookmark2" viewBox="0 0 24 24"><path d="M17 3a2 2 0 0 1 2 2v15a1 1 0 0 1-1.496.868l-4.512-2.578a2 2 0 0 0-1.984 0l-4.512 2.578A1 1 0 0 1 5 20V5a2 2 0 0 1 2-2z"/></symbol>
<symbol id="chevron-left" viewBox="0 0 24 24"><path d="m15 18-6-6 6-6"/></symbol>
<symbol id="message-square-more" viewBox="0 0 24 24"><path d="M22 17a2 2 0 0 1-2 2H6.828a2 2 0 0 0-1.414.586l-2.202 2.202A.71.71 0 0 1 2 21.286V5a2 2 0 0 1 2-2h16a2 2 0 0 1 2 2z"/><path d="M12 11h.01"/><path d="M16 11h.01"/><path d="M8 11h.01"/></symbol>
<symbol id="home" viewBox="0 0 24 24"><path d="M15 21v-8a1 1 0 0 0-1-1h-4a1 1 0 0 0-1 1v8"/><path d="M3 10a2 2 0 0 1 .709-1.528l7-6a2 2 0 0 1 2.582 0l7 6A2 2 0 0 1 21 10v9a2 2 0 0 1-2 2H5a2 2 0 0 1-2-2z"/></symbol>
<symbol id="database" viewBox="0 0 24 24"><ellipse cx="12" cy="5" rx="9" ry="3"/><path d="M3 5V19A9 3 0 0 0 21 19V5"/><path d="M3 12A9 3 0 0 0 21 12"/></symbol>
</svg>
